<?xml version="1.0" encoding="utf-8"?>
<!-- Generator: Adobe Illustrator 18.0.0, SVG Export Plug-In . SVG Version: 6.00 Build 0)  -->
<!DOCTYPE svg PUBLIC "-//W3C//DTD SVG 1.1//EN" "http://www.w3.org/Graphics/SVG/1.1/DTD/svg11.dtd">
<svg version="1.1" id="Layer_1" xmlns="http://www.w3.org/2000/svg" xmlns:xlink="http://www.w3.org/1999/xlink" x="0px" y="0px"
	 viewBox="0 0 1074 127.6" enable-background="new 0 0 1074 127.6" xml:space="preserve">
<g>
	<path fill="#FFFFFF" d="M127.6,63.9L127.6,63.9L127.6,63.9C127.6,28.6,99,0,63.8,0C28.6,0,0,28.6,0,63.8c0,16.2,6.1,30.9,15.6,41.7
		l48-39.2l34.6,29.3c-8.3,9.9-19.8,15.1-34.3,15.1c-8.9,0-17.3-2.5-24.4-6.9L25.8,115c10.6,7.9,23.8,12.6,38,12.6
		c27.6,0,51.1-17.6,60-42.1l-60-50.4l-46,37.2c-0.5-2.8-0.8-5.6-0.8-8.5c0-25.9,21-46.9,46.9-46.9c21.8,0,40.1,14.9,45.3,35.1
		l0.7,3.1l17.5,14.7c0.2-1.5,0.2-3,0.3-4.4C127.6,64.8,127.6,64.4,127.6,63.9L127.6,63.9z M127.3,69.7c0-0.5,0.1-1,0.1-1.5
		C127.4,68.7,127.3,69.2,127.3,69.7"/>
	<path fill="#FFFFFF" d="M1020.1,57.6h-43V45.4h43.7v1.2h0v2.9l13.5,0.9v-2.5h0c0-9.8-3.9-12.4-14.1-12.4h-40.6
		c-10.7,0-14.1,2.8-14.1,13.4v6.3c0,10.7,3.4,13.4,14.1,13.4h43v13h-43.5v-1.7h0v-3.7l-13.6-0.9v4.7h0c0.2,9.8,3.9,12.4,14.2,12.4
		h40.3c10.7,0,14.2-2.7,14.2-13.4V71C1034.3,60.3,1030.8,57.6,1020.1,57.6 M672.8,57.6h-43V45.4h43.7v1.2h0v2.9l13.5,0.9v-2.5h0
		c0-9.8-3.9-12.4-14.1-12.4h-40.6c-10.7,0-14.1,2.8-14.1,13.4v6.3c0,10.7,3.4,13.4,14.1,13.4h43v13h-43.5v-1.7h0v-3.7l-13.6-0.9v4.7
		h0c0.2,9.8,3.9,12.4,14.2,12.4h40.4c10.7,0,14.2-2.7,14.2-13.4V71C686.9,60.3,683.4,57.6,672.8,57.6 M1058.7,50.5h2.5V39.1h0
		l4.1,11.3h2.1l4.1-11.3h0v11.3h2.5V35.8h-3.6l-4,11.5h0l-4-11.5h-3.6V50.5z M1045.2,38h4.7v12.5h2.6V38h4.7v-2.2h-11.9V38z
		 M860.9,92.1h12.8V35.4h-12.8V92.1z M793.9,45.1V61h37.3c4.1,0,5.9-0.8,5.9-4.5v-6.8c0-3.8-1.9-4.5-5.9-4.5H793.9z M780.5,35.4
		h56.2c8.7,0,12.8,3.1,12.8,11v13.3c0,7.9-4.1,11-12.8,11l14.4,21.5h-13.7l-14.1-21.5h-29.9v21.5h-13V35.4z M884.5,92.1h71.2V81.5
		h-58V67.4h39.4v-9.7h-39.4V45h58.1v-9.7h-71.3V92.1z M697.7,92.1h71.2V81.5h-58V67.4h39.4v-9.7h-39.4V45H769v-9.7h-71.3V92.1z"/>
	<path fill="#FFFFFF" d="M552.9,45.5h29.3V35.4h-71.6v10.1h29.2v46.6h13.2V45.5z M218.1,57.5h-43V45.3h43.7v1.2h0v2.9l13.5,0.9v-2.5
		h0c0-9.8-3.9-12.4-14.1-12.4h-40.6c-10.7,0-14.1,2.8-14.1,13.4v6.3c0,10.7,3.4,13.4,14.1,13.4h43v13h-43.5v-1.7h0V76l-13.5-0.9v4.6
		h0c0.2,9.8,3.8,12.4,14.1,12.4h40.3c10.7,0,14.2-2.8,14.2-13.4v-7.8C232.3,60.2,228.8,57.5,218.1,57.5 M489.3,92.1h13.2V35.4h-13.2
		V92.1z M443,86.1l24.1-33.3l0,4.3v35.1h11.4V35.4h-11.4L443,67.8l-24.1-32.4h-11.4v56.7h11.4V57l0-4.3L443,86.1z M361.6,86.1
		l24.1-33.3l0,4.3v35.1h11.4V35.4h-11.4l-24.1,32.4l-24.1-32.4h-11.4v56.7h11.4V57l0-4.3L361.6,86.1z M256.4,81.4h45.2v-46h13.2
		v43.3c0,10.7-3.4,13.4-14.1,13.4h-43.4c-10.6,0-14.1-2.7-14.1-13.4V35.4h13.2V81.4z"/>
</g>
</svg>
